<svg width="20" height="20" viewBox="0 0 20 20" fill="none" xmlns="http://www.w3.org/2000/svg">
<g id="local_grocery_store_24px">
<path id="icon/maps/local_grocery_store_24px" fill-rule="evenodd" clip-rule="evenodd" d="M13.7886 10.8334C14.4136 10.8334 14.9636 10.4917 15.2469 9.97502L18.2302 4.56669C18.5386 4.01669 18.1386 3.33335 17.5052 3.33335H5.17191L4.38857 1.66669H1.66357V3.33335H3.33024L6.33024 9.65835L5.20524 11.6917C4.59691 12.8084 5.39691 14.1667 6.66357 14.1667H16.6636V12.5H6.66357L7.58024 10.8334H13.7886ZM5.00524 16.6667C5.00524 15.75 5.74691 15 6.66357 15C7.58024 15 8.33024 15.75 8.33024 16.6667C8.33024 17.5834 7.58024 18.3334 6.66357 18.3334C5.74691 18.3334 5.00524 17.5834 5.00524 16.6667ZM13.3386 16.6667C13.3386 15.75 14.0802 15 14.9969 15C15.9136 15 16.6636 15.75 16.6636 16.6667C16.6636 17.5834 15.9136 18.3334 14.9969 18.3334C14.0802 18.3334 13.3386 17.5834 13.3386 16.6667ZM16.0886 5.00002H5.96357L7.93857 9.16669H13.7886L16.0886 5.00002Z" fill="black"/>
</g>
</svg>
